<svg xmlns="http://www.w3.org/2000/svg" width="32" height="32">
    <path style="stroke:none;fill-rule:nonzero;fill:#000;fill-opacity:1" d="M4.8 14C6.567 14 8 12.207 8 10S6.566 6 4.8 6c-1.765 0-3.198 1.793-3.198 4s1.433 4 3.199 4Zm22.4 0c1.765 0 3.198-1.793 3.198-4S28.965 6 27.2 6C25.434 6 24 7.793 24 10s1.434 4 3.2 4Zm1.6 2h-3.198c-.883 0-1.676.445-2.258 1.164 2.015 1.379 3.445 3.875 3.758 6.836h3.296c.887 0 1.602-.895 1.602-2v-2c0-2.207-1.434-4-3.2-4ZM16 16c3.094 0 5.602-3.133 5.602-7S19.094 2 16 2c-3.094 0-5.602 3.133-5.602 7s2.508 7 5.602 7Zm3.84 2h-.414c-1.04.625-2.196 1-3.426 1s-2.379-.375-3.426-1h-.414c-3.18 0-5.762 3.227-5.762 7.2V27c0 1.656 1.079 3 2.403 3h14.398c1.324 0 2.403-1.344 2.403-3v-1.8c0-3.973-2.582-7.2-5.762-7.2Zm-11.184-.836C8.074 16.445 7.281 16 6.398 16H3.2C1.434 16 0 17.793 0 20v2c0 1.105.715 2 1.602 2h3.293c.316-2.96 1.746-5.457 3.761-6.836Zm0 0"/>
</svg>
